<?xml version="1.0" encoding="utf-8"?>
<!-- Generator: Adobe Illustrator 17.0.0, SVG Export Plug-In . SVG Version: 6.00 Build 0)  -->
<!DOCTYPE svg PUBLIC "-//W3C//DTD SVG 1.1//EN" "http://www.w3.org/Graphics/SVG/1.1/DTD/svg11.dtd">
<svg version="1.1" xmlns="http://www.w3.org/2000/svg" xmlns:xlink="http://www.w3.org/1999/xlink" x="0px" y="0px"
	 width="316.525px" height="91.642px" viewBox="0 0 316.525 91.642" enable-background="new 0 0 316.525 91.642"
	 xml:space="preserve">
<g id="Background">
</g>
<g id="Objects">
	<g>
		<path fill="#FACC15" d="M66.369,24.817c-0.119-1.245,0.525-2.448,1.636-3.022C91.649,9.563,115.43,5.346,136.792,5.232v17.736
			h0.533c2.486,0,4.501-2.015,4.501-4.501V5.28c42.223,1.034,73.803,17.479,73.803,17.479
			c-83.056-51.077-171.441-0.222-171.441-0.222H13.05c-3.903,0-6.654,3.831-5.406,7.53l1.278,3.787
			c1.203,3.564,0.299,7.543-2.425,10.137C-6.479,56.343,3.992,68.284,3.992,68.284s-1.999-15.99,7.773-18.654
			c9.771-2.665,23.096-9.993,10.438-16.211l119.92-1.777l-72.895-4.045C67.722,27.496,66.512,26.319,66.369,24.817z"/>
		<path fill="#FACC15" d="M316.34,57.904c-0.768-14.689-25.038-28.261-73.692-28.261h-75.653l19.622,3.738
			c11.765,2.241,42.797,3.369,54.773,3.369h7.773c20.594,0,35.076,2.849,45.177,6.489c-6.949,0.788-12.014,3.217-12.014,6.095
			c0,3.516,7.556,6.366,16.878,6.366c9.321,0,15.767,0.074,17.322,3.331C316.525,58.721,316.46,58.339,316.34,57.904z"/>
		<path fill="#FFFFFF" d="M74.68,53.418l-9.964,38.224H53.444l-6.099-25.155L41.03,91.642H29.759l-9.692-38.224h9.964l5.499,27.824
			l6.806-27.824h10.237l6.534,27.824l5.554-27.824H74.68z"/>
		<path fill="#FFFFFF" d="M79.279,68.174c1.179-2.359,2.786-4.174,4.819-5.445c2.033-1.27,4.302-1.905,6.806-1.905
			c2.142,0,4.02,0.436,5.636,1.307c1.615,0.871,2.858,2.015,3.729,3.431v-4.302h9.311v30.383h-9.311V87.34
			c-0.908,1.416-2.169,2.56-3.784,3.431c-1.615,0.871-3.494,1.307-5.635,1.307c-2.469,0-4.719-0.644-6.752-1.933
			c-2.033-1.288-3.64-3.122-4.819-5.5c-1.18-2.377-1.77-5.126-1.77-8.249C77.51,73.275,78.1,70.534,79.279,68.174z M98.337,70.951
			c-1.289-1.343-2.859-2.015-4.71-2.015s-3.422,0.662-4.71,1.987c-1.289,1.325-1.933,3.149-1.933,5.472
			c0,2.323,0.644,4.166,1.933,5.527c1.288,1.36,2.859,2.041,4.71,2.041s3.421-0.671,4.71-2.015c1.288-1.342,1.933-3.176,1.933-5.499
			C100.269,74.128,99.625,72.294,98.337,70.951z"/>
		<path fill="#FFFFFF" d="M121.613,90.716c-2.069-0.907-3.702-2.15-4.9-3.729c-1.198-1.579-1.87-3.349-2.015-5.309h9.202
			c0.109,1.053,0.599,1.905,1.47,2.559s1.941,0.98,3.212,0.98c1.161,0,2.06-0.227,2.695-0.681c0.635-0.454,0.953-1.043,0.953-1.77
			c0-0.871-0.454-1.516-1.361-1.934c-0.908-0.416-2.378-0.879-4.411-1.388c-2.178-0.508-3.994-1.043-5.445-1.606
			c-1.452-0.563-2.705-1.451-3.757-2.668c-1.053-1.216-1.579-2.858-1.579-4.928c0-1.742,0.48-3.33,1.443-4.765
			c0.961-1.434,2.377-2.567,4.247-3.403c1.869-0.834,4.092-1.252,6.67-1.252c3.812,0,6.814,0.944,9.011,2.831
			c2.196,1.889,3.458,4.393,3.784,7.515h-8.603c-0.146-1.053-0.608-1.888-1.388-2.505c-0.781-0.617-1.806-0.926-3.077-0.926
			c-1.089,0-1.924,0.209-2.504,0.626c-0.581,0.418-0.871,0.989-0.871,1.716c0,0.871,0.462,1.524,1.388,1.96s2.369,0.871,4.329,1.307
			c2.25,0.581,4.084,1.152,5.5,1.715c1.416,0.563,2.659,1.471,3.73,2.723c1.07,1.252,1.624,2.932,1.661,5.037
			c0,1.778-0.5,3.367-1.498,4.764c-0.999,1.398-2.432,2.496-4.301,3.294c-1.87,0.799-4.039,1.198-6.507,1.198
			C126.042,92.077,123.683,91.624,121.613,90.716z"/>
		<path fill="#FFFFFF" d="M173.775,64.39c2.105,2.306,3.158,5.473,3.158,9.501v17.751h-9.256V75.144
			c0-2.032-0.527-3.611-1.579-4.737c-1.053-1.125-2.469-1.688-4.247-1.688c-1.779,0-3.194,0.563-4.247,1.688
			c-1.053,1.126-1.579,2.705-1.579,4.737v16.498h-9.311V51.349h9.311v13.994c0.944-1.343,2.232-2.414,3.866-3.213
			c1.633-0.798,3.466-1.197,5.499-1.197C168.875,60.933,171.67,62.085,173.775,64.39z"/>
		<path fill="#FACC15" d="M189.729,90.661c-2.214-0.906-3.984-2.25-5.309-4.029c-1.326-1.777-2.024-3.92-2.096-6.425h9.91
			c0.145,1.416,0.635,2.496,1.47,3.24c0.834,0.744,1.923,1.116,3.267,1.116c1.379,0,2.468-0.317,3.267-0.953
			c0.798-0.635,1.198-1.516,1.198-2.641c0-0.943-0.318-1.724-0.953-2.342c-0.636-0.616-1.416-1.124-2.341-1.524
			c-0.926-0.398-2.242-0.853-3.948-1.361c-2.469-0.762-4.483-1.524-6.044-2.287c-1.561-0.762-2.904-1.887-4.029-3.375
			c-1.125-1.488-1.688-3.431-1.688-5.826c0-3.558,1.288-6.344,3.866-8.358c2.577-2.015,5.935-3.021,10.073-3.021
			c4.21,0,7.604,1.007,10.182,3.021c2.577,2.015,3.957,4.819,4.138,8.412h-10.073c-0.073-1.233-0.527-2.205-1.361-2.913
			c-0.835-0.707-1.906-1.062-3.212-1.062c-1.126,0-2.034,0.3-2.723,0.898c-0.69,0.6-1.035,1.462-1.035,2.587
			c0,1.234,0.581,2.196,1.743,2.886c1.161,0.689,2.976,1.435,5.445,2.232c2.468,0.835,4.473,1.633,6.017,2.396
			c1.542,0.763,2.876,1.87,4.002,3.321c1.125,1.452,1.688,3.321,1.688,5.608c0,2.178-0.554,4.157-1.661,5.935
			c-1.108,1.779-2.714,3.195-4.819,4.247c-2.105,1.054-4.592,1.579-7.459,1.579C194.447,92.023,191.943,91.569,189.729,90.661z"/>
		<path fill="#FACC15" d="M246.9,61.259v30.383h-9.311v-4.138c-0.944,1.343-2.224,2.423-3.838,3.239
			c-1.616,0.816-3.403,1.226-5.363,1.226c-2.324,0-4.375-0.518-6.153-1.553c-1.779-1.034-3.158-2.531-4.138-4.491
			c-0.98-1.961-1.47-4.266-1.47-6.915V61.259h9.256v16.498c0,2.033,0.526,3.612,1.579,4.737c1.052,1.126,2.468,1.688,4.247,1.688
			c1.815,0,3.249-0.562,4.302-1.688c1.052-1.125,1.579-2.704,1.579-4.737V61.259H246.9z"/>
		<path fill="#FACC15" d="M254.278,56.658c-1.035-0.962-1.552-2.151-1.552-3.566c0-1.452,0.517-2.659,1.552-3.621
			c1.034-0.962,2.368-1.443,4.002-1.443c1.597,0,2.913,0.481,3.947,1.443c1.035,0.962,1.552,2.169,1.552,3.621
			c0,1.415-0.518,2.604-1.552,3.566c-1.034,0.962-2.351,1.442-3.947,1.442C256.646,58.101,255.312,57.62,254.278,56.658z
			 M262.908,61.259v30.383h-9.311V61.259H262.908z"/>
		<path fill="#FACC15" d="M286.594,83.746v7.896h-4.737c-3.376,0-6.008-0.825-7.896-2.478c-1.888-1.651-2.831-4.347-2.831-8.086
			V68.99h-3.703v-7.731h3.703v-7.405h9.311v7.405h6.099v7.731h-6.099v12.197c0,0.907,0.218,1.561,0.653,1.96
			c0.436,0.4,1.162,0.599,2.178,0.599H286.594z"/>
	</g>
</g>
<g id="Texts">
</g>
</svg>
