<svg xmlns="http://www.w3.org/2000/svg" width="70" height="70" viewBox="0 0 70 70" fill="none"><path d="M57.0162 58.7099H49.113V51.0438L49.3513 50.9094C55.2718 47.5786 59.297 41.6049 60.1956 34.8747C61.7413 33.0514 62.6615 30.6679 62.6615 28.1105V23.2951C62.6615 21.0415 61.6047 19.2521 59.9834 18.4796C58.0153 7.73507 48.8149 0 37.8226 0C31.7055 0 26.0118 2.40156 21.7351 6.77412H9.59662V7.90318C9.59662 12.3978 12.0048 16.3315 15.5907 18.5116C14.7632 18.9033 14.0811 19.5368 13.6204 20.3226H11.8547C9.98736 20.3226 8.46756 21.8424 8.46756 23.7098V24.9403C5.26911 25.4811 2.82227 28.263 2.82227 31.6129V40.6452C2.82227 44.3811 5.86044 47.4193 9.59638 47.4193H10.7254C13.2162 47.4193 15.2417 49.4448 15.2417 51.9355V59.3024C11.3014 60.7024 8.46756 64.4576 8.46756 68.8709V70H10.7257V68.8709C10.7257 65.7266 12.5762 63.0123 15.2419 61.7412V70H17.5V61.0581C17.8704 61.005 18.2452 60.9678 18.6291 60.9678H27.2742L37.8226 69.1725L48.3711 60.9678H57.0162C61.3731 60.9678 64.9193 64.5128 64.9193 68.8709V70H67.1775V68.8709C67.1775 63.269 62.6197 58.7099 57.0162 58.7099ZM11.918 9.03224H22.706L23.0412 8.6754C26.9218 4.53757 32.1719 2.25788 37.8226 2.25788C47.2648 2.25788 55.5236 8.94854 57.6089 18.0462C54.8541 17.8554 52.421 16.1437 51.3213 13.5786L49.113 8.42218L46.9047 13.5774C45.736 16.3028 43.066 18.0642 40.1011 18.0642H22.016C16.7942 18.0645 12.4814 14.1061 11.918 9.03224ZM51.9411 18.0645H46.2846C47.4284 17.1092 48.3666 15.8967 48.9797 14.4675L49.113 14.158L49.2462 14.4686C49.8591 15.8969 50.7985 17.1094 51.9411 18.0645ZM15.2417 22.6011C15.2417 21.3445 16.2636 20.3226 17.5202 20.3226H22.016H40.1009H58.126C59.509 20.3226 60.4033 21.4889 60.4033 23.2953V28.1108C60.4033 31.717 58.0921 34.8839 54.7829 35.8096C52.0731 36.5659 49.3411 35.9632 47.285 34.1532L46.9665 33.8711H28.6785L28.3589 34.1532C26.5275 35.7667 24.0809 36.4362 21.6568 35.9924C17.9401 35.3138 15.2417 31.9176 15.2417 27.9164V22.6011ZM10.7257 23.7098C10.7257 23.0876 11.2314 22.5807 11.8547 22.5807H12.9838V22.6011V27.9166V29.3551H11.8547C11.2314 29.3551 10.7257 28.8685 10.7257 28.2464V23.7098ZM26.5325 58.7099H18.6289C18.2474 58.7099 17.8713 58.7348 17.5 58.7765V51.9358C17.5 48.1998 14.4619 45.1617 10.7259 45.1617H9.59686C7.10615 45.1617 5.08062 43.1361 5.08062 40.6454V31.6132C5.08062 29.5153 6.52455 27.762 8.4678 27.2575V28.2464C8.4678 30.1138 9.9876 31.6132 11.855 31.6132H13.6356C14.0555 32.7422 14.6698 33.8452 15.4375 34.7699C16.3103 41.5407 20.3409 47.5563 26.2942 50.9049L26.5325 51.0438V58.7099ZM46.8549 59.2867L37.8226 66.3117L28.7904 59.2867V52.3137L30.93 53.5172C33.0299 54.6982 35.4135 55.3225 37.8226 55.3225C40.232 55.3225 42.6153 54.6982 44.7153 53.5172L46.8549 52.3137V59.2867ZM48.2435 48.9415L43.6088 51.5495C40.0829 53.5321 35.5621 53.5321 32.036 51.5495L27.4012 48.9415C22.8456 46.3784 19.5488 42.0746 18.1962 37.0935C19.1298 37.6241 20.1539 38.0136 21.2523 38.2147C24.2218 38.7567 27.2059 37.998 29.518 36.1294H46.1272C47.9607 37.6163 50.1714 38.3909 52.4802 38.3897C53.441 38.3897 54.4188 38.2552 55.392 37.9833C56.1147 37.7813 56.7966 37.4911 57.438 37.1366C56.0758 42.0995 52.7823 46.3886 48.2435 48.9415Z" fill="white"></path><path d="M50.2417 28.2261H19.7578V30.4842H50.2417V28.2261Z" fill="white"></path><path d="M55.8872 28.2261H52.5V30.4842H55.8872V28.2261Z" fill="white"></path></svg>