<svg xmlns="http://www.w3.org/2000/svg" width="70" height="70" viewBox="0 0 70 70" fill="none"><path d="M59.8389 29.3548H38.3873V27.0968H40.1553L45.7464 17.7778C46.8402 15.9542 47.4196 13.8654 47.4196 11.7385C47.4196 5.26588 42.1537 0 35.6811 0H34.3205C27.8467 0 22.5809 5.26588 22.5809 11.7385C22.5809 13.8654 23.1603 15.9542 24.2529 17.7789L29.8452 27.0968H31.6131V29.3548H10.1615C8.29431 29.3548 6.77441 30.8747 6.77441 32.7419V66.6129C6.77441 68.4801 8.29431 70 10.1615 70H59.8389C61.7061 70 63.226 68.4801 63.226 66.6129V32.7419C63.226 30.8747 61.7061 29.3548 59.8389 29.3548ZM40.6454 67.7419H36.1293V56.4516H42.9034V49.6774H47.4196V40.6452H38.3873V36.129H56.4518V47.4194H51.9357V54.1936H47.4196V60.9677H40.6454V67.7419ZM45.1615 11.7385C45.1615 12.496 45.0551 13.2435 44.8782 13.9729C41.0103 12.4745 38.3873 8.73071 38.3873 4.51613V2.65664C42.2992 3.82537 45.1615 7.45172 45.1615 11.7385ZM31.6131 2.65664V4.51613C31.6131 8.73071 28.9901 12.4745 25.1223 13.9729C24.9453 13.2435 24.8389 12.496 24.8389 11.7385C24.8389 7.45172 27.7012 3.82537 31.6131 2.65664ZM26.189 16.6168C26.0865 16.4454 26.0099 16.2624 25.9183 16.0865C30.6577 14.2573 33.8712 9.67561 33.8712 4.51613V2.28067C34.0211 2.27405 34.1683 2.25806 34.3194 2.25806H35.68C35.8321 2.25806 35.9793 2.27405 36.1293 2.28067V4.51613C36.1293 9.67561 39.3427 14.2573 44.0821 16.0854C43.9906 16.2613 43.914 16.4443 43.8114 16.6157L38.8774 24.8387H31.1241L26.189 16.6168ZM36.1293 27.0968V40.6452H33.8712V27.0968H36.1293ZM31.6131 40.6452H27.097V36.129H31.6131V40.6452ZM9.03248 66.6129V32.7419C9.03248 32.1201 9.53856 31.6129 10.1615 31.6129H31.6131V33.871H24.8389V42.9032H45.1615V47.4194H40.6454V54.1936H33.8712V67.7419H10.1615C9.53856 67.7419 9.03248 67.2359 9.03248 66.6129ZM60.968 66.6129C60.968 67.2359 60.4619 67.7419 59.8389 67.7419H42.9034V63.2258H49.6776V56.4516H54.1938V49.6774H58.7099V33.871H38.3873V31.6129H59.8389C60.4619 31.6129 60.968 32.1201 60.968 32.7419V66.6129Z" fill="white"></path><path d="M11.29 42.9034H22.5804V33.8711H11.29V42.9034ZM13.5481 36.1292H20.3223V40.6453H13.5481V36.1292Z" fill="white"></path><path d="M11.29 65.4837H20.3223V45.1611H11.29V65.4837ZM13.5481 63.2257V60.9676H18.0642V63.2257H13.5481ZM18.0642 56.4515V58.7095H13.5481V56.4515H18.0642ZM13.5481 54.1934V51.9353H18.0642V54.1934H13.5481ZM18.0642 47.4192V49.6773H13.5481V47.4192H18.0642Z" fill="white"></path></svg>