<svg xmlns="http://www.w3.org/2000/svg" width="70" height="70" viewBox="0 0 70 70" fill="none"><path d="M51.7323 45.089L42.9034 43.1267V40.3368C46.3154 37.8743 48.5486 33.8742 48.5486 29.3547V23.3358C48.7823 23.1043 49.0024 22.857 49.191 22.5804H50.8065H51.9356H54.1936V20.3225H51.9356V18.0645C51.9356 9.9863 46.1018 3.00997 38.2394 1.47786C37.9207 0.617602 37.0987 0 36.1291 0H33.8711C32.9013 0 32.0792 0.617602 31.761 1.47786C23.8984 3.00997 18.0648 9.9863 18.0648 18.0645V20.3225H15.8066V22.5806H18.0646H19.1937H20.8094C20.999 22.8572 21.2181 23.1055 21.4518 23.337V29.3547C21.4518 33.8742 23.685 37.8743 27.097 40.3368V43.1267L18.268 45.089C11.5006 46.5929 6.77441 52.4842 6.77441 59.4164V70H63.226V59.4164C63.2258 52.4842 58.4998 46.5929 51.7323 45.089ZM18.0644 67.742H9.03225V59.4164C9.03225 53.7915 12.7141 48.9865 18.0644 47.4781V67.742ZM43.4495 45.5609L39.2326 51.1846L36.1537 48.1057L41.9208 45.2221L43.4495 45.5609ZM34.9998 42.9031C37.0162 42.9031 38.9243 42.4481 40.645 41.6555V43.3344L34.9998 46.157L29.3546 43.3344V41.6555C31.0755 42.4481 32.9834 42.9031 34.9998 42.9031ZM31.7337 40.1596C31.9166 39.7824 32.2949 39.516 32.7419 39.516H37.258C37.7051 39.516 38.0833 39.7826 38.2662 40.1596C37.232 40.4724 36.1358 40.6451 35 40.6451C33.8642 40.6451 32.768 40.4724 31.7337 40.1596ZM22.461 20.9469L22.1494 20.3225H20.3226V18.0645C20.3226 11.2621 25.0927 5.34828 31.613 3.80154V9.03236H33.8711V2.25804H36.1291V9.03215H38.3871V3.80154C44.9072 5.34828 49.6775 11.2621 49.6775 18.0645V20.3225H47.8507L47.5392 20.9469C47.0346 21.954 46.0217 22.5806 44.895 22.5806H25.1053C23.9772 22.5806 22.9646 21.9551 22.461 20.9469ZM23.7096 29.3547V24.6443C24.1567 24.7685 24.6241 24.8386 25.1051 24.8386H44.8936C45.3746 24.8386 45.8421 24.7675 46.2892 24.6443V29.3547C46.2892 33.6428 43.8866 37.3787 40.3572 39.289C39.8333 38.0956 38.6434 37.2579 37.258 37.2579H32.7419C31.3566 37.2579 30.1667 38.0956 29.6428 39.289C26.1123 37.3789 23.7096 33.6428 23.7096 29.3547ZM28.0791 45.2211L33.8463 48.1047L30.7674 51.1836L26.5505 45.5599L28.0791 45.2211ZM33.8711 67.7418H20.3226V65.4837H33.8711V67.7418ZM33.8711 63.2257H20.3226V46.9451L24.1309 46.0995L33.8711 59.0856V63.2257ZM32.1359 53.0081L35.0002 50.1449L37.8644 53.0091L35.0002 56.8275L32.1359 53.0081ZM36.1289 59.0856L45.8691 46.0982L49.6773 46.9451V63.2257H36.1289V59.0856ZM49.6775 67.7418H36.1291V65.4837H49.6775V67.7418ZM60.9677 67.7418H51.9356V47.4779C57.2859 48.9863 60.9677 53.7926 60.9677 59.4164V67.7418Z" fill="white"></path><path d="M46.2905 18.0645H23.71V20.3225H46.2905V18.0645Z" fill="white"></path></svg>